<?xml version="1.0" standalone="no"?>
<!DOCTYPE svg PUBLIC "-//W3C//DTD SVG 20010904//EN" "http://www.w3.org/TR/2001/REC-SVG-20010904/DTD/svg10.dtd">
<svg version="1.0" xmlns="http://www.w3.org/2000/svg" width="798.000000pt" height="653.000000pt" viewBox="0 0 798.000000 653.000000" preserveAspectRatio="xMidYMid meet">
    <g transform="translate(0.000000,653.000000) scale(0.100000,-0.100000)" fill="currentColor" stroke="none">
        <path d="M2555 6422 c-504 -260 -1024 -657 -1408 -1077 -593 -649 -965 -1383 -1091 -2155 -103 -636 -35 -1335 184 -1885 96 -242 188 -408 326 -592 264 -351 630 -592 1049 -690 53 -12 138 -17 346 -20 248 -4 289 -2 398 16 542 94 978 439 1150 910 68 186 96 390 88 640 -12 387 -118 693 -335 962 -77 96 -122 136 -232 208 -144 95 -324 161 -536 197 -129 22 -406 23 -519 2 -44 -9 -82 -14 -85 -11 -2 2 -6 91 -8 197 -5 223 9 340 64 529 137 472 434 934 841 1309 192 177 412 338 610 445 l84 45 -17 27 c-19 29 -723 1012 -733 1023 -3 4 -82 -32 -176 -80z"/>
        <path d="M6950 6434 c-699 -365 -1297 -873 -1768 -1503 -424 -568 -699 -1249 -776 -1921 -67 -583 19 -1252 225 -1745 287 -690 764 -1117 1390 -1245 95 -20 128 -21 389 -17 243 3 299 7 380 25 305 67 545 191 749 388 277 265 400 538 431 953 18 234 -13 497 -82 706 -63 189 -202 420 -329 545 -263 259 -774 392 -1216 316 l-73 -12 -7 35 c-4 20 -8 117 -8 216 0 159 4 196 29 320 124 605 533 1217 1111 1665 106 82 336 231 417 271 l46 22 -365 511 c-201 281 -373 519 -382 528 -15 16 -25 13 -161 -58z"/>
    </g>
</svg>
