<?xml version="1.0" standalone="no"?>
<!DOCTYPE svg PUBLIC "-//W3C//DTD SVG 20010904//EN"
 "http://www.w3.org/TR/2001/REC-SVG-20010904/DTD/svg10.dtd">
<svg version="1.0" xmlns="http://www.w3.org/2000/svg"
 width="611.000000pt" height="611.000000pt" viewBox="0 0 611.000000 611.000000"
 preserveAspectRatio="xMidYMid meet">

<g transform="translate(0.000000,611.000000) scale(0.100000,-0.100000)"
fill="#000000" stroke="none">
<path d="M1582 6099 c-34 -5 -98 -22 -141 -38 -262 -96 -433 -325 -457 -613
-9 -107 7 -160 67 -220 116 -116 314 -82 379 66 11 24 24 76 30 115 12 88 27
119 82 165 88 76 218 76 307 0 49 -43 71 -89 82 -176 17 -140 96 -226 215
-236 109 -9 191 36 238 130 30 60 33 113 12 228 -57 315 -293 540 -607 580
-94 11 -118 11 -207 -1z"/>
<path d="M4295 6096 c-326 -76 -564 -359 -569 -676 -1 -77 2 -90 29 -140 39
-72 103 -112 185 -118 147 -11 243 76 261 235 11 96 44 155 112 197 122 75
272 33 337 -96 19 -38 30 -77 30 -102 0 -63 17 -108 57 -156 48 -55 101 -80
178 -80 146 0 240 103 237 260 -5 294 -205 558 -497 656 -98 33 -265 42 -360
20z"/>
<path d="M1235 4809 c-38 -5 -113 -21 -165 -35 -568 -153 -980 -623 -1059
-1207 -15 -107 -15 -2190 0 -2307 29 -240 120 -470 265 -670 67 -93 233 -258
326 -324 194 -137 425 -226 658 -255 117 -15 3473 -15 3590 0 240 29 470 120
670 265 93 67 258 233 324 326 137 194 226 425 255 658 7 54 11 463 11 1150 0
687 -4 1096 -11 1150 -51 414 -284 791 -632 1023 -164 110 -414 203 -607 227
-106 13 -3523 12 -3625 -1z m3690 -497 c300 -85 541 -306 650 -596 55 -149 55
-147 55 -1306 0 -896 -2 -1081 -15 -1151 -67 -382 -382 -697 -764 -764 -127
-23 -3466 -22 -3594 0 -378 66 -696 384 -762 762 -22 127 -22 2178 0 2305 65
374 360 678 735 758 81 18 174 19 1850 17 l1765 -2 80 -23z"/>
<path d="M1116 3495 c-53 -19 -106 -63 -130 -111 -29 -55 -29 -173 0 -229 25
-48 91 -101 143 -115 27 -7 653 -9 1947 -8 l1909 3 42 22 c112 60 157 212 96
329 -24 47 -89 99 -141 114 -25 7 -656 10 -1932 10 -1585 -1 -1901 -3 -1934
-15z"/>
<path d="M1464 2571 c-93 -24 -161 -78 -206 -164 -32 -60 -32 -194 0 -254 34
-66 78 -110 140 -140 77 -38 184 -39 252 -4 128 66 198 201 170 324 -24 101
-79 172 -167 216 -47 24 -141 34 -189 22z"/>
<path d="M2475 2567 c-67 -23 -101 -44 -143 -92 -49 -56 -72 -119 -72 -196 0
-116 58 -212 161 -265 73 -38 179 -40 257 -5 113 51 180 168 170 296 -6 71
-25 117 -74 173 -67 79 -205 120 -299 89z"/>
<path d="M3505 2570 c-16 -5 -55 -24 -85 -42 -91 -55 -148 -171 -136 -277 19
-161 135 -265 296 -265 174 0 293 118 294 294 1 67 -3 82 -33 138 -36 67 -66
95 -141 132 -49 25 -147 35 -195 20z"/>
<path d="M4513 2562 c-204 -73 -270 -321 -128 -480 62 -68 127 -97 225 -96 62
0 84 5 129 28 29 15 69 44 87 64 71 77 94 209 54 314 -52 139 -227 220 -367
170z"/>
<path d="M1426 1534 c-57 -18 -141 -96 -170 -158 -43 -91 -27 -224 37 -307
100 -131 316 -147 438 -32 146 136 114 382 -62 478 -65 35 -167 43 -243 19z"/>
<path d="M2467 1540 c-15 -5 -50 -22 -76 -40 -112 -72 -157 -208 -115 -350 22
-74 100 -152 174 -174 199 -59 378 53 397 247 9 100 -15 167 -86 238 -44 44
-70 61 -111 73 -57 17 -137 20 -183 6z"/>
<path d="M3487 1536 c-59 -22 -114 -62 -147 -108 -143 -196 -3 -468 240 -468
120 0 218 61 268 167 70 150 5 327 -147 399 -48 23 -165 29 -214 10z"/>
<path d="M4506 1534 c-35 -11 -66 -32 -107 -73 -71 -71 -95 -138 -86 -238 19
-194 198 -306 397 -247 74 22 152 100 174 174 44 148 -3 281 -127 357 -49 31
-67 36 -130 39 -46 3 -89 -2 -121 -12z"/>
</g>
</svg>
