<?xml version="1.0" standalone="no"?>
<!DOCTYPE svg PUBLIC "-//W3C//DTD SVG 20010904//EN"
 "http://www.w3.org/TR/2001/REC-SVG-20010904/DTD/svg10.dtd">
<svg version="1.0" xmlns="http://www.w3.org/2000/svg"
 width="550.000000pt" height="534.000000pt" viewBox="0 0 550.000000 534.000000"
 preserveAspectRatio="xMidYMid meet">

<g transform="translate(0.000000,534.000000) scale(0.100000,-0.100000)"
fill="#000000" stroke="none">
<path d="M3809 5291 c-29 -22 -27 -19 -99 -213 -27 -76 -73 -200 -100 -275
-28 -76 -60 -159 -70 -185 -43 -102 -11 -178 75 -178 63 0 73 17 165 265 34
94 89 242 121 329 33 87 59 171 59 185 0 70 -96 116 -151 72z"/>
<path d="M1549 5261 c-19 -20 -29 -40 -29 -60 0 -25 218 -522 303 -690 38 -75
108 -91 163 -36 16 16 24 36 24 57 0 45 -302 705 -336 736 -37 32 -88 30 -125
-7z"/>
<path d="M2713 4990 c-17 -10 -37 -28 -42 -39 -7 -12 -11 -114 -11 -276 0
-209 3 -261 15 -285 30 -58 95 -67 147 -21 l33 29 3 255 c3 292 -1 317 -62
342 -44 19 -45 19 -83 -5z"/>
<path d="M986 4294 c-20 -21 -26 -37 -26 -69 0 -42 7 -51 191 -262 105 -120
202 -228 215 -240 30 -27 89 -31 121 -8 29 20 46 75 34 108 -5 14 -61 82 -123
153 -62 70 -146 166 -186 213 -40 47 -85 96 -100 108 -38 32 -92 31 -126 -3z"/>
<path d="M4418 4253 c-148 -124 -436 -385 -442 -398 -24 -63 23 -135 87 -135
40 0 32 -6 267 199 255 222 260 228 260 277 0 35 -5 47 -31 68 -45 38 -86 35
-141 -11z"/>
<path d="M2394 3866 c-18 -14 -19 -31 -22 -380 l-3 -366 -429 0 -429 0 -15
-22 c-14 -19 -16 -71 -16 -369 0 -322 1 -347 18 -362 17 -15 62 -17 445 -17
l427 0 2 -1161 c3 -1136 3 -1161 22 -1175 16 -11 83 -14 366 -14 323 0 348 1
363 18 16 17 17 113 17 1175 l0 1157 434 0 435 0 15 22 c14 19 16 71 16 365 0
330 -1 344 -20 363 -19 19 -33 20 -450 20 l-430 0 0 364 c0 318 -2 367 -16
380 -13 14 -60 16 -363 16 -284 0 -351 -3 -367 -14z"/>
<path d="M5220 3621 c-80 -32 -208 -84 -285 -116 -214 -87 -403 -164 -473
-192 -78 -31 -106 -64 -99 -116 11 -81 66 -102 167 -64 61 23 305 121 625 252
77 32 163 67 190 77 98 38 117 51 132 86 26 63 -18 132 -84 132 -15 0 -93 -27
-173 -59z"/>
<path d="M63 3646 c-34 -25 -47 -78 -29 -114 8 -15 21 -33 28 -39 7 -6 101
-48 208 -93 107 -45 224 -95 260 -110 36 -15 137 -58 225 -95 88 -37 184 -78
214 -91 72 -32 111 -31 143 4 34 37 40 59 27 99 -14 44 17 29 -494 245 -104
44 -253 108 -330 141 -151 65 -216 78 -252 53z"/>
<path d="M251 2554 c-42 -35 -44 -98 -5 -138 l27 -26 447 0 c435 0 448 1 473
20 52 41 40 138 -19 160 -15 6 -207 10 -459 10 l-433 0 -31 -26z"/>
<path d="M4344 2570 c-59 -24 -72 -104 -25 -151 l29 -29 445 0 445 0 31 26
c40 33 43 89 7 131 l-24 28 -444 2 c-243 1 -453 -2 -464 -7z"/>
<path d="M4418 1875 c-48 -27 -59 -113 -20 -148 21 -19 23 -20 707 -309 77
-32 167 -71 200 -86 81 -35 130 -35 161 1 28 32 32 91 10 123 -18 26 13 12
-671 299 -88 37 -191 80 -228 97 -85 37 -124 42 -159 23z"/>
<path d="M1005 1845 c-16 -8 -91 -39 -165 -69 -767 -311 -779 -316 -796 -349
-33 -63 12 -137 83 -137 19 0 73 16 121 36 48 20 191 78 317 129 127 52 298
121 380 154 83 34 161 69 175 80 53 39 48 120 -9 154 -35 20 -65 21 -106 2z"/>
<path d="M1375 1348 c-26 -21 -348 -382 -392 -442 -25 -32 -30 -84 -13 -117
16 -28 67 -51 100 -44 29 6 62 41 305 318 149 169 165 198 140 250 -27 58 -91
74 -140 35z"/>
<path d="M4013 1330 c-38 -23 -52 -74 -33 -118 7 -15 64 -73 128 -129 65 -56
168 -147 231 -202 108 -95 117 -101 158 -101 57 0 93 33 93 84 0 19 -3 41 -6
50 -7 18 -447 407 -481 424 -31 17 -53 15 -90 -8z"/>
</g>
</svg>
