<?xml version="1.0" standalone="no"?>
<!DOCTYPE svg PUBLIC "-//W3C//DTD SVG 20010904//EN" "http://www.w3.org/TR/2001/REC-SVG-20010904/DTD/svg10.dtd">
    <svg version="1.0" xmlns="http://www.w3.org/2000/svg" width="1785.000000pt" height="1829.000000pt" viewBox="0 0 1785.000000 1829.000000" preserveAspectRatio="xMidYMid meet">
        <g transform="translate(0.000000,1829.000000) scale(0.100000,-0.100000)" stroke="none">
            <path fill="#000000" d="M8622 18117 c-10 -12 -34 -859 -25 -883 6 -15 639 -29 657 -15 14 12 16 98 3 119 -6 9 -68 12 -252 12 -212 0 -244 2 -249 16 -12 31 -7 222 7 231 6 4 107 8 222 8 l210 0 0 65 0 65 -215 6 c-118 3 -216 6 -218 7 -1 1 -1 55 0 120 l3 117 245 5 245 5 3 58 c2 40 -1 58 -10 61 -7 3 -149 7 -315 10 -229 4 -304 2 -311 -7z"/>
            <path fill="#000000" d="M7853 18083 c-53 -7 -56 -18 -38 -145 8 -62 22 -160 30 -218 8 -58 19 -129 25 -159 13 -70 13 -111 -1 -111 -6 0 -133 122 -283 270 l-271 271 -70 -3 -70 -3 -3 -34 c-2 -18 3 -74 12 -125 8 -50 22 -145 31 -211 9 -66 23 -160 30 -210 8 -49 22 -140 31 -202 11 -67 23 -114 30 -117 18 -7 113 9 124 20 11 11 -15 217 -56 464 -16 97 -18 150 -5 150 4 0 129 -121 277 -270 l268 -270 67 0 c93 0 96 6 76 128 -19 115 -34 210 -53 350 -16 118 -39 285 -50 357 -10 76 -15 79 -101 68z"/>
            <path fill="#000000" d="M9892 18048 c-7 -7 -12 -24 -12 -39 0 -14 -6 -57 -14 -95 -8 -38 -21 -114 -31 -169 -9 -55 -23 -136 -31 -180 -8 -44 -26 -149 -40 -234 -25 -148 -25 -155 -8 -168 10 -7 30 -13 46 -13 15 0 60 -7 100 -14 257 -52 374 -59 450 -30 98 38 148 115 148 227 0 66 -3 78 -30 115 -16 23 -41 49 -55 58 -34 22 -31 42 9 59 56 24 104 88 112 151 11 88 -1 122 -59 179 -61 60 -123 84 -272 110 -131 22 -255 44 -281 50 -11 2 -26 -1 -32 -7z m313 -181 c139 -24 182 -60 172 -144 -6 -55 -37 -88 -92 -99 -36 -6 -235 19 -279 36 -18 6 -26 17 -26 32 1 31 33 180 42 194 8 11 20 10 183 -19z m-130 -358 c191 -29 262 -67 271 -144 8 -62 -20 -106 -81 -128 -47 -18 -55 -18 -145 -2 -52 8 -111 18 -130 21 -54 8 -68 13 -74 30 -5 13 26 196 39 233 4 9 14 11 33 6 15 -4 54 -11 87 -16z"/>
            <path fill="#000000" d="M6425 17801 c-83 -29 -180 -60 -275 -88 -30 -8 -71 -21 -90 -28 -19 -7 -54 -18 -77 -24 -50 -14 -59 -34 -39 -87 8 -22 24 -73 36 -114 12 -41 28 -91 35 -110 13 -37 27 -84 65 -210 12 -41 28 -91 35 -110 7 -19 27 -81 45 -138 18 -57 38 -106 45 -108 7 -3 39 4 71 14 33 11 93 29 134 42 41 12 91 28 110 35 19 7 67 22 105 33 39 12 97 30 130 40 l60 19 -2 41 c-2 53 -18 82 -46 82 -21 0 -138 -35 -352 -105 -76 -26 -103 -31 -111 -22 -17 19 -74 204 -68 221 3 8 16 18 27 21 61 17 166 49 197 60 29 10 109 35 168 51 14 4 16 60 2 69 -5 3 -10 14 -10 24 0 42 -23 43 -131 7 -242 -79 -282 -89 -297 -80 -17 11 -62 143 -65 192 -2 37 -11 32 183 92 185 56 265 86 268 101 5 27 -38 109 -56 108 -9 0 -53 -13 -97 -28z"/>
            <path fill="#000000" d="M11202 17768 c-9 -11 -129 -353 -152 -433 -5 -16 -36 -109 -69 -205 -34 -96 -61 -181 -61 -187 0 -19 78 -55 112 -51 28 3 33 9 50 58 11 30 23 69 27 85 10 38 39 95 49 95 14 0 182 -59 212 -75 18 -10 30 -23 30 -36 0 -24 36 -188 53 -243 10 -31 19 -41 52 -53 22 -8 55 -17 74 -20 l34 -6 -7 39 c-8 42 -27 115 -57 210 -10 33 -19 63 -19 66 0 15 34 38 56 38 53 0 142 67 185 140 52 86 62 203 24 283 -48 102 -129 157 -336 228 -267 92 -242 85 -257 67z m203 -194 c39 -14 85 -30 104 -36 43 -13 99 -48 131 -83 21 -23 25 -36 25 -93 0 -115 -62 -182 -165 -182 -48 0 -158 27 -201 50 -9 5 -35 14 -59 20 -42 11 -42 11 -36 51 3 21 13 53 20 71 8 18 26 71 41 118 28 88 40 110 59 110 6 0 43 -12 81 -26z"/>
            <path fill="#000000" d="M5340 17410 c-30 -16 -118 -59 -195 -96 -382 -181 -375 -177 -375 -206 0 -25 35 -98 48 -98 6 0 83 36 176 82 33 16 65 27 72 24 7 -3 42 -65 77 -138 87 -178 177 -366 221 -460 20 -44 42 -78 50 -78 26 0 116 51 116 66 0 8 -23 63 -51 122 -28 59 -73 152 -99 207 -140 293 -160 337 -160 350 0 9 47 37 115 70 64 30 118 61 121 69 5 14 -43 116 -55 115 -3 0 -31 -13 -61 -29z"/>
            <path fill="#000000" d="M12620 17065 c-106 -85 -333 -264 -535 -421 -60 -47 -111 -89 -113 -94 -3 -9 34 -36 89 -64 l36 -19 80 67 c45 36 88 66 97 66 10 0 40 -13 69 -29 65 -36 160 -87 256 -137 l73 -39 -6 -105 c-3 -58 -2 -110 2 -117 12 -18 103 -65 117 -59 13 5 31 131 40 286 5 88 25 341 44 570 9 106 3 121 -56 146 -17 8 -34 18 -38 24 -15 24 -57 4 -155 -75z m105 -114 c3 -6 1 -39 -5 -74 -5 -36 -14 -121 -19 -191 -5 -70 -11 -130 -15 -133 -5 -6 -31 6 -202 95 -67 35 -92 58 -78 71 40 37 299 241 305 241 4 0 10 -4 14 -9z"/>
            <path fill="#000000" d="M13639 16501 c-56 -11 -101 -42 -136 -94 -66 -99 -55 -182 45 -330 37 -54 79 -117 94 -140 35 -55 36 -111 3 -152 -22 -26 -31 -30 -75 -29 -105 1 -222 119 -270 273 -8 24 -19 45 -26 48 -19 7 -113 -40 -120 -59 -3 -9 9 -51 27 -93 75 -181 261 -325 419 -325 72 1 126 26 178 85 93 106 81 210 -47 390 -76 109 -89 132 -96 166 -9 48 14 93 55 107 69 25 188 -56 255 -173 51 -89 50 -89 107 -58 67 36 71 43 50 84 -105 203 -303 331 -463 300z"/>
            <path fill="#000000" d="M3098 15977 c-42 -40 -155 -146 -251 -235 -97 -90 -178 -171 -182 -180 -6 -17 60 -92 82 -92 7 0 52 38 101 85 48 46 94 85 103 85 16 0 132 -119 398 -407 62 -67 120 -124 129 -128 20 -7 114 83 104 100 -4 7 -68 77 -143 156 -272 288 -359 384 -359 396 0 7 41 51 90 99 50 48 90 94 90 103 0 15 -68 92 -80 91 -3 -1 -39 -33 -82 -73z"/>
            <path fill="#000000" d="M2294 15092 c-76 -41 -124 -79 -178 -143 -77 -90 -106 -155 -108 -241 -2 -135 97 -238 227 -238 63 0 97 14 220 94 143 93 149 96 203 96 46 0 53 -3 76 -33 15 -19 26 -43 26 -55 0 -41 -41 -114 -91 -162 -54 -52 -161 -110 -203 -110 -14 0 -31 -7 -39 -15 -14 -13 -13 -21 6 -66 28 -65 45 -74 100 -55 194 66 334 207 368 373 19 93 2 159 -60 222 -56 58 -107 76 -192 68 -60 -5 -137 -43 -252 -121 -105 -71 -157 -82 -206 -41 -41 35 -45 57 -22 107 36 75 118 151 214 197 26 12 47 28 46 34 -1 25 -55 112 -69 114 -8 1 -38 -10 -66 -25z"/>
            <path fill="#000000" d="M15555 14694 c-16 -13 -59 -45 -95 -70 -69 -48 -113 -79 -305 -218 -66 -48 -150 -107 -188 -132 -37 -26 -72 -54 -77 -63 -7 -14 16 -52 108 -182 64 -91 130 -183 145 -206 38 -55 52 -59 100 -26 43 30 55 49 41 69 -29 42 -98 139 -148 209 l-58 80 39 34 c21 18 63 50 94 70 30 21 75 52 100 70 71 52 223 162 304 220 41 30 75 59 75 64 0 5 -14 31 -32 58 -36 56 -57 61 -103 23z"/>
            <path fill="#000000" d="M1660 14040 c-98 -24 -178 -67 -239 -129 -43 -44 -105 -136 -116 -171 -4 -14 -11 -29 -15 -35 -5 -5 -13 -43 -18 -83 -14 -97 1 -199 39 -277 31 -61 113 -155 159 -180 120 -65 204 -83 317 -66 41 6 84 18 96 26 12 8 27 15 35 15 22 0 116 75 160 128 102 121 141 270 111 414 -33 152 -132 270 -283 337 -55 24 -188 36 -246 21z m215 -179 c60 -32 124 -100 151 -160 31 -70 33 -187 5 -252 -41 -93 -123 -164 -221 -193 -70 -21 -105 -20 -174 4 -148 51 -233 172 -224 323 8 142 103 264 233 298 55 15 187 3 230 -20z"/>
            <path fill="#000000" d="M16186 13801 c-3 -5 -102 -57 -218 -116 -255 -129 -304 -159 -350 -216 -66 -81 -73 -103 -73 -220 0 -108 0 -110 53 -214 25 -49 83 -119 127 -151 115 -87 250 -84 433 9 292 150 408 210 416 217 13 13 -43 118 -66 126 -10 3 -24 1 -31 -4 -7 -6 -96 -53 -198 -105 -102 -52 -194 -99 -205 -105 -93 -52 -201 -63 -259 -27 -107 67 -165 227 -117 321 40 79 55 89 427 278 82 42 152 82 156 88 7 11 -23 80 -49 111 -16 18 -38 22 -46 8z"/>
            <path fill="#000000" d="M977 12818 c-57 -15 -139 -96 -181 -179 -20 -39 -36 -75 -36 -81 0 -5 -6 -24 -14 -41 -12 -28 -39 -100 -83 -221 -8 -22 -12 -44 -10 -50 3 -6 27 -19 53 -29 27 -10 65 -25 84 -32 19 -7 62 -23 95 -36 33 -12 69 -26 80 -30 11 -5 34 -13 50 -18 17 -5 55 -19 85 -31 30 -12 69 -26 85 -31 17 -5 39 -13 50 -18 11 -4 47 -18 80 -30 33 -13 76 -29 95 -37 65 -26 82 -23 102 19 11 21 21 51 24 66 5 25 2 29 -38 45 -23 10 -57 24 -73 31 -17 7 -44 15 -62 19 -17 4 -39 16 -48 26 -17 18 -16 24 19 119 55 150 73 241 57 299 -20 75 -53 132 -96 166 -98 76 -210 102 -318 74z m181 -157 c65 -34 86 -64 90 -134 4 -65 -2 -95 -38 -187 -12 -30 -26 -70 -31 -87 -7 -23 -16 -33 -29 -33 -31 0 -320 111 -320 123 0 15 58 171 82 222 38 82 82 114 156 114 33 1 67 -6 90 -18z"/>
            <path fill="#000000" d="M16690 12433 c-153 -204 -209 -273 -224 -273 -8 0 -63 16 -123 35 -59 19 -160 51 -223 71 -63 20 -128 41 -143 46 -15 6 -30 8 -34 5 -8 -9 36 -144 51 -157 13 -10 75 -31 270 -91 59 -19 110 -39 113 -45 2 -7 -45 -78 -106 -159 -61 -80 -115 -154 -120 -164 -12 -21 21 -142 43 -160 12 -10 19 -6 38 21 86 124 312 408 324 408 8 0 54 -13 102 -28 48 -16 121 -39 162 -52 41 -12 101 -31 132 -41 72 -24 88 -24 88 0 0 26 -46 145 -56 147 -11 3 -146 43 -199 59 -22 7 -59 19 -83 26 -71 21 -71 29 -1 121 92 120 106 139 134 179 l25 35 -22 70 c-14 41 -29 70 -38 71 -9 2 -53 -49 -110 -124z"/>
            <path fill="#dc2626" d="M4579 12001 c-85 -28 -137 -91 -165 -200 -27 -104 -22 -101 -193 -101 -166 0 -202 -9 -259 -63 -55 -52 -66 -83 -66 -172 1 -70 4 -85 28 -120 51 -74 133 -115 233 -115 28 0 54 -4 57 -9 4 -5 0 -22 -8 -38 -122 -246 -155 -309 -199 -377 -88 -139 -193 -269 -300 -372 -109 -105 -260 -216 -283 -207 -10 4 -14 27 -14 87 0 98 -24 154 -86 201 -110 84 -262 58 -341 -59 -26 -40 -27 -47 -33 -209 -6 -187 -6 -187 -75 -187 -115 0 -214 -62 -248 -156 -21 -61 -22 -102 0 -156 35 -91 84 -130 185 -147 40 -7 87 -16 103 -20 l30 -7 5 -170 c5 -165 6 -172 33 -212 15 -23 46 -54 70 -69 38 -25 51 -28 132 -28 84 0 92 2 129 30 69 52 90 97 96 200 4 72 8 90 21 93 22 4 118 -61 219 -150 206 -180 372 -411 514 -713 21 -44 42 -90 48 -102 17 -35 2 -43 -85 -43 -76 -1 -86 -3 -129 -33 -26 -18 -59 -50 -74 -72 -24 -35 -28 -50 -28 -122 -1 -75 1 -85 29 -124 17 -24 50 -57 74 -74 l43 -30 165 -3 164 -4 19 -31 c11 -17 22 -52 26 -77 8 -50 23 -79 68 -128 47 -52 95 -72 168 -72 75 0 129 23 176 72 31 33 72 127 72 166 0 11 9 31 21 46 20 25 23 26 137 26 151 0 183 10 243 71 38 39 50 60 60 104 32 142 -71 285 -205 285 -25 0 -48 5 -51 11 -7 10 33 95 92 199 128 224 305 421 493 547 89 60 272 153 300 153 5 0 21 5 37 12 15 6 51 17 78 24 28 7 68 17 90 23 64 17 75 8 75 -54 0 -72 28 -133 84 -182 141 -124 359 -34 385 160 4 29 10 58 14 64 8 13 105 9 120 -6 5 -5 11 -24 13 -41 11 -91 45 -151 114 -200 38 -27 108 -39 170 -29 98 15 192 126 188 222 -1 20 1 40 4 43 3 3 729 1 1613 -5 1320 -8 1609 -12 1616 -23 12 -18 11 -186 -1 -193 -5 -3 -290 -6 -633 -5 -528 0 -625 -2 -642 -14 -19 -14 -20 -29 -23 -503 -1 -381 1 -493 11 -513 l13 -25 228 -3 c149 -1 234 -6 243 -13 17 -14 19 -559 3 -590 -10 -18 -24 -19 -245 -19 -221 0 -235 -1 -245 -19 -16 -30 -14 -922 3 -944 11 -16 45 -17 422 -15 l410 3 5 255 c3 140 9 261 13 268 6 9 62 12 223 12 118 0 215 -1 216 -2 1 -2 5 -124 8 -273 l5 -270 1059 -3 c774 -1 1062 1 1072 9 11 9 14 63 14 263 0 183 3 255 12 264 9 9 71 12 220 12 197 0 208 -1 218 -20 7 -13 10 -107 10 -260 -1 -132 1 -244 5 -250 10 -15 817 -14 833 2 9 9 12 129 12 478 0 349 -3 469 -12 478 -9 9 -75 12 -236 12 -135 0 -231 4 -243 10 -18 10 -19 24 -19 298 0 211 3 291 12 300 9 9 76 12 239 12 194 0 230 2 243 16 14 14 16 74 16 508 0 409 -2 495 -14 512 -14 18 -34 19 -647 21 -499 2 -634 5 -641 15 -13 22 -10 174 5 186 9 8 233 12 728 14 660 3 717 4 742 20 38 26 68 59 79 90 6 18 19 29 40 33 83 19 179 85 222 154 92 148 65 334 -66 445 -48 42 -118 76 -155 76 -18 0 -28 9 -38 33 -20 47 -74 94 -125 107 -35 10 -237 11 -870 6 -454 -4 -1977 -11 -3385 -16 -2268 -7 -2561 -6 -2572 7 -6 8 -9 29 -7 46 7 46 -40 134 -93 174 -96 72 -221 62 -305 -25 -47 -49 -68 -98 -68 -158 0 -44 -19 -56 -87 -52 l-58 3 -6 51 c-6 50 -36 125 -61 154 -21 25 -79 56 -129 69 -136 37 -279 -85 -279 -237 0 -59 -15 -66 -97 -46 -159 40 -250 72 -330 115 -32 18 -73 41 -92 50 -66 35 -221 161 -296 241 -108 114 -160 186 -272 373 -34 57 -82 158 -78 165 2 4 25 10 50 13 71 10 134 48 171 102 58 84 53 208 -13 285 -56 65 -102 80 -248 80 -135 0 -150 6 -160 58 -33 164 -103 239 -232 247 -37 3 -80 1 -94 -4z m176 -1632 c71 -38 115 -103 115 -170 0 -49 27 -115 56 -141 29 -26 82 -45 144 -53 76 -9 128 -46 163 -114 31 -63 33 -94 10 -153 -32 -84 -83 -123 -187 -143 -42 -8 -90 -22 -107 -32 -40 -23 -79 -100 -79 -155 0 -56 -33 -113 -88 -155 -40 -30 -49 -33 -116 -33 -65 0 -78 3 -113 29 -54 39 -82 87 -94 160 -13 83 -22 103 -62 138 -33 29 -72 42 -170 58 -52 8 -121 77 -137 137 -35 128 42 246 171 263 115 14 180 69 194 165 16 107 52 164 130 204 43 23 122 20 170 -5z m7169 -1575 c3 -9 6 -128 6 -264 0 -236 1 -250 19 -260 13 -6 144 -10 360 -10 218 0 342 -4 346 -10 4 -6 6 -100 6 -210 0 -110 -2 -204 -6 -210 -4 -6 -126 -10 -340 -10 -232 0 -342 -4 -360 -12 l-25 -11 0 -248 c0 -136 -3 -254 -6 -263 -5 -14 -33 -16 -209 -16 -112 0 -210 3 -219 6 -14 5 -16 37 -16 254 0 221 -2 250 -17 269 -18 21 -25 21 -363 24 l-345 2 0 215 0 215 344 3 c303 2 347 4 363 19 16 15 18 37 18 268 0 138 3 255 7 258 3 4 102 7 219 7 184 0 213 -2 218 -16z"/>
            <path fill="#000000" d="M618 11609 c-10 -5 -18 -18 -18 -28 0 -10 -7 -24 -15 -31 -8 -7 -15 -20 -15 -30 0 -9 -9 -25 -20 -35 -11 -10 -20 -26 -20 -35 0 -10 -7 -23 -15 -30 -8 -7 -15 -21 -15 -32 0 -26 -40 -68 -65 -68 -11 0 -33 -7 -49 -15 -17 -9 -56 -15 -100 -15 -76 0 -130 -11 -161 -34 -17 -12 -14 -17 52 -80 39 -36 93 -88 121 -115 l51 -49 -6 -79 c-2 -43 -11 -95 -19 -116 -24 -63 -15 -188 11 -147 3 5 17 10 29 10 13 0 29 7 36 15 7 8 20 15 30 15 10 0 23 7 30 15 7 8 21 15 31 15 10 0 21 4 24 10 7 11 102 60 118 60 6 0 75 -32 154 -71 143 -71 181 -81 174 -44 -1 11 -6 52 -10 90 -3 39 -12 80 -19 92 -13 23 -17 153 -4 153 4 0 30 22 57 48 28 26 74 67 103 91 77 64 81 76 33 101 -32 16 -59 20 -134 20 -70 0 -98 4 -107 14 -6 8 -28 16 -48 18 -28 2 -38 8 -40 23 -2 11 -10 27 -17 35 -7 8 -38 66 -69 128 -31 61 -60 112 -64 112 -4 0 -15 -5 -24 -11z"/>
            <path fill="#000000" d="M17247 11402 c-9 -10 -44 -73 -77 -139 -33 -67 -72 -131 -87 -142 -21 -17 -40 -21 -112 -21 -49 -1 -103 -7 -126 -15 -22 -8 -52 -15 -67 -15 -55 0 -42 -23 87 -146 102 -99 126 -127 120 -141 -5 -10 -11 -49 -14 -88 -4 -38 -12 -80 -19 -92 -15 -26 -16 -143 -2 -143 6 0 18 4 28 9 9 5 43 21 75 36 31 15 60 32 63 36 3 5 13 9 23 9 10 0 24 7 31 15 7 8 20 15 30 15 10 0 23 7 30 15 7 8 23 15 35 15 12 0 28 -7 35 -15 7 -8 23 -15 35 -15 13 0 25 -7 29 -15 3 -8 16 -15 29 -15 14 0 30 -7 37 -15 7 -8 20 -15 30 -15 10 0 23 -6 29 -13 6 -8 29 -19 52 -26 51 -16 68 -4 51 34 -7 14 -12 52 -12 84 0 35 -6 65 -15 77 -9 11 -14 42 -15 78 0 65 -10 52 153 199 48 43 87 85 87 93 0 7 -12 16 -27 19 -16 3 -50 13 -77 21 -26 7 -81 14 -122 14 -102 0 -129 18 -179 117 -21 43 -42 80 -47 81 -4 2 -8 12 -8 22 0 10 -6 25 -13 32 -8 7 -17 26 -21 41 -7 31 -26 35 -49 9z"/>
            <path fill="#000000" d="M16290 6098 c-24 -46 -57 -111 -74 -145 -30 -61 -32 -63 -71 -63 -22 -1 -58 -7 -80 -15 -22 -8 -68 -15 -101 -15 -164 0 -165 -15 -15 -163 l120 -118 -4 -71 c-3 -39 -11 -78 -17 -86 -7 -8 -12 -47 -13 -96 0 -75 2 -81 21 -84 11 -2 27 4 34 13 7 8 20 15 30 15 9 0 25 9 35 20 10 11 28 20 40 20 13 0 25 7 29 15 3 8 16 15 29 15 14 0 30 7 37 15 8 10 30 15 65 15 35 0 57 -5 65 -15 7 -8 20 -15 30 -15 10 0 23 -7 30 -15 7 -8 21 -15 31 -15 10 0 21 -4 24 -10 11 -18 113 -63 129 -57 21 8 22 111 1 150 -8 16 -18 65 -21 109 l-6 79 116 111 c70 66 116 118 116 129 0 27 -38 39 -124 39 -39 0 -77 5 -82 10 -6 6 -40 13 -76 17 l-66 6 -57 111 c-31 61 -60 118 -65 126 -5 8 -11 23 -14 33 -3 10 -15 17 -29 17 -20 0 -31 -15 -67 -82z"/>
            <path fill="#000000" d="M1320 6110 c-19 -16 -40 -29 -45 -30 -6 0 -24 -12 -41 -27 -36 -33 -61 -50 -89 -62 -12 -5 -27 -16 -34 -25 -18 -22 -69 -20 -114 4 -20 11 -47 20 -60 20 -13 0 -32 7 -43 15 -10 8 -30 15 -44 15 -14 0 -34 7 -44 15 -11 8 -32 15 -48 15 -24 0 -28 -4 -28 -29 0 -16 7 -34 15 -41 8 -7 15 -27 15 -45 0 -18 7 -38 15 -45 8 -7 15 -26 15 -43 0 -17 7 -38 15 -47 9 -10 17 -39 18 -66 2 -40 -3 -54 -22 -74 -13 -14 -49 -59 -81 -100 -31 -42 -65 -81 -74 -89 -23 -19 -20 -28 14 -46 22 -11 65 -15 184 -15 l156 0 29 -42 c17 -24 42 -59 56 -78 14 -19 44 -61 67 -92 30 -42 48 -58 65 -58 18 0 23 5 23 28 0 15 9 44 20 65 11 20 20 49 20 64 0 16 7 37 15 47 8 11 15 34 15 51 0 40 36 75 76 75 16 0 38 7 48 15 11 8 36 15 56 15 20 0 45 7 56 15 10 8 33 15 51 15 46 0 63 9 63 34 0 20 -44 55 -148 121 -9 6 -38 26 -64 47 -26 20 -53 38 -60 40 -10 4 -14 50 -16 186 -2 100 -7 182 -11 182 -3 0 -22 -13 -41 -30z"/>
            <path fill="#000000" d="M1990 4894 c-79 -19 -172 -70 -230 -126 -218 -210 -214 -532 11 -773 77 -82 214 -175 257 -175 22 0 322 197 322 212 0 20 -103 168 -117 168 -8 0 -55 -27 -105 -60 -49 -33 -99 -60 -111 -60 -25 1 -90 56 -130 110 -14 19 -33 63 -43 98 -15 53 -16 70 -6 113 17 74 39 113 86 159 98 96 224 121 338 66 109 -52 178 -172 178 -311 0 -85 -13 -76 129 -94 100 -13 101 -13 101 78 0 214 -149 459 -335 550 -115 57 -235 72 -345 45z"/>
            <path fill="#000000" d="M15604 4653 c-27 -37 -60 -84 -74 -104 -32 -46 -284 -396 -311 -431 l-20 -28 24 -22 c13 -13 55 -45 93 -71 38 -27 134 -96 214 -153 80 -58 168 -120 195 -139 28 -19 104 -73 169 -120 98 -71 122 -84 132 -73 12 12 34 43 186 257 51 71 125 174 215 299 61 85 61 84 1 126 -29 20 -64 44 -77 53 -23 17 -24 17 -53 -17 -16 -19 -86 -115 -155 -212 -69 -97 -132 -179 -139 -182 -7 -3 -32 9 -56 25 -24 17 -55 38 -70 47 -16 9 -28 25 -28 36 0 10 24 50 53 90 138 183 206 286 201 299 -5 15 -135 107 -150 107 -5 0 -43 -49 -84 -107 -137 -195 -190 -263 -205 -263 -17 0 -145 97 -145 110 0 7 106 158 237 340 58 79 61 89 33 111 -32 25 -127 89 -132 89 -2 0 -26 -30 -54 -67z"/>
            <path fill="#000000" d="M2943 3807 c-66 -61 -197 -181 -290 -266 -255 -234 -313 -290 -313 -301 0 -6 48 -62 108 -124 59 -63 177 -191 262 -284 85 -94 160 -171 166 -171 6 -1 42 28 80 64 l68 64 -26 28 c-277 297 -336 367 -327 385 12 22 128 120 138 116 6 -3 181 -190 277 -296 l41 -46 62 54 c90 79 92 83 39 139 -202 213 -268 286 -268 298 0 13 124 123 138 123 11 0 83 -74 242 -248 57 -63 109 -116 117 -119 14 -6 140 103 142 122 1 9 -34 48 -233 265 -175 189 -289 310 -295 310 -3 0 -61 -51 -128 -113z"/>
            <path fill="#000000" d="M7185 3759 c-44 -27 -55 -47 -55 -96 0 -58 36 -91 125 -117 92 -26 124 -77 70 -112 -36 -24 -95 -21 -144 7 -30 16 -44 20 -52 12 -19 -19 0 -49 45 -71 85 -43 184 -20 220 52 16 32 17 44 7 76 -12 40 -60 80 -97 80 -32 1 -102 37 -114 60 -9 17 -8 26 5 46 13 20 23 24 68 24 31 0 61 -6 73 -15 36 -27 71 -15 58 20 -19 49 -151 71 -209 34z"/>
            <path fill="#000000" d="M8165 3760 c-154 -69 -168 -285 -23 -372 62 -38 195 -31 218 11 16 30 -8 43 -55 30 -67 -19 -124 -6 -162 34 -60 66 -57 158 8 219 35 33 46 38 89 38 27 0 61 -5 76 -12 23 -11 28 -10 40 7 17 23 6 37 -45 54 -48 16 -99 13 -146 -9z"/>
            <path fill="#000000" d="M8450 3760 c-18 -18 -20 -33 -20 -188 0 -126 3 -173 14 -187 11 -15 30 -19 117 -22 112 -4 135 2 124 36 -6 19 -13 21 -95 21 -71 0 -89 3 -94 16 -8 22 -7 87 2 101 4 7 38 13 82 15 67 3 75 5 75 23 0 18 -8 20 -77 23 -86 3 -93 10 -86 83 l3 34 93 3 c71 2 94 6 99 18 13 33 -16 44 -118 44 -86 0 -102 -3 -119 -20z"/>
            <path fill="#000000" d="M8985 3762 c-40 -25 -58 -49 -51 -67 6 -17 46 -21 46 -4 0 5 16 17 35 24 43 19 81 6 95 -31 16 -42 -3 -82 -81 -170 -90 -100 -105 -122 -92 -135 12 -12 227 -18 239 -6 5 4 3 16 -2 25 -8 12 -28 18 -73 20 -72 3 -76 13 -25 63 118 115 132 233 32 285 -37 19 -87 17 -123 -4z"/>
            <path fill="#000000" d="M9319 3757 c-54 -35 -74 -87 -74 -187 0 -100 20 -151 75 -188 65 -44 158 -13 196 65 26 56 25 195 -2 248 -42 81 -127 108 -195 62z m120 -56 c54 -54 53 -211 -1 -261 -24 -22 -59 -26 -88 -10 -53 28 -67 194 -21 258 18 25 29 32 57 32 20 0 42 -8 53 -19z"/>
            <path fill="#000000" d="M9665 3768 c-62 -34 -87 -88 -41 -88 13 0 30 9 37 21 10 15 26 21 53 22 45 1 76 -28 76 -74 0 -28 -6 -36 -138 -190 -29 -33 -51 -66 -49 -73 4 -13 183 -32 221 -22 21 5 27 12 24 29 -3 19 -10 22 -63 25 -33 2 -64 7 -68 11 -5 5 15 35 43 67 64 73 90 122 90 170 0 30 -7 44 -40 76 -34 32 -48 38 -83 38 -23 0 -51 -6 -62 -12z"/>
            <path fill="#000000" d="M9992 3759 c-55 -35 -77 -90 -77 -189 0 -129 42 -195 133 -207 52 -7 95 16 130 70 25 38 27 50 27 137 0 87 -2 99 -27 137 -47 73 -121 93 -186 52z m126 -66 c42 -60 40 -200 -3 -247 -74 -80 -161 26 -139 172 10 70 36 102 84 102 31 0 43 -6 58 -27z"/>
            <path fill="#000000" d="M7486 3754 c-3 -9 -6 -91 -6 -184 0 -93 3 -175 6 -184 3 -9 14 -16 24 -16 10 0 21 7 24 16 12 31 7 359 -6 372 -17 17 -35 15 -42 -4z"/>
            <path fill="#000000" d="M7640 3751 c-6 -11 -10 -89 -10 -181 0 -160 7 -200 35 -200 22 0 27 35 24 158 -3 71 0 117 6 119 6 2 57 -60 115 -136 149 -199 160 -195 160 60 0 145 -3 179 -15 189 -12 10 -18 10 -30 0 -12 -10 -15 -38 -15 -136 0 -67 -4 -125 -9 -128 -4 -3 -37 34 -73 82 -151 201 -165 215 -188 173z"/>
            <path fill="#000000" d="M14814 3571 c-92 -33 -166 -91 -346 -269 -98 -97 -178 -179 -178 -183 0 -3 154 -162 342 -353 230 -234 348 -346 362 -346 25 0 166 137 166 161 0 10 -38 56 -85 103 -47 47 -85 92 -85 99 0 16 121 137 138 137 6 0 38 -8 69 -19 138 -45 195 -61 216 -61 15 0 53 31 117 95 112 112 130 93 -141 155 -48 11 -94 20 -103 20 -23 0 -26 14 -29 121 -3 116 -22 156 -116 249 -104 103 -210 133 -327 91z m129 -238 c15 -7 41 -32 57 -55 35 -48 41 -117 14 -158 -28 -41 -168 -180 -182 -180 -7 0 -60 48 -118 107 l-105 107 86 86 c115 115 166 135 248 93z"/>
            <path fill="#000000" d="M3733 2742 c-116 -152 -250 -326 -297 -387 -47 -60 -86 -117 -86 -125 0 -16 158 -140 178 -140 6 0 26 21 45 48 20 26 65 85 101 132 36 47 96 126 133 177 66 90 93 111 93 76 1 -10 1 -178 0 -373 l0 -355 85 -64 86 -64 24 24 c44 45 585 760 585 773 0 7 -25 30 -56 52 -30 21 -61 44 -67 50 -24 21 -59 36 -67 27 -5 -4 -83 -107 -175 -228 -92 -121 -172 -220 -179 -220 -8 0 -10 100 -8 370 2 204 0 375 -5 380 -16 20 -140 113 -159 119 -17 5 -54 -39 -231 -272z"/>
            <path fill="#000000" d="M13725 2620 c-160 -33 -336 -166 -404 -305 -34 -69 -61 -173 -61 -237 0 -174 130 -377 291 -455 116 -56 282 -63 406 -17 120 44 261 165 319 272 112 207 77 439 -91 607 -66 66 -88 81 -178 120 -43 19 -220 28 -282 15z m193 -254 c99 -50 172 -168 172 -277 0 -113 -54 -200 -156 -250 -58 -29 -70 -31 -131 -26 -99 7 -178 52 -231 130 -34 49 -62 128 -62 172 0 43 33 136 62 175 26 36 112 96 148 103 52 11 149 -2 198 -27z"/>
            <path fill="#000000" d="M5059 2103 c-25 -49 -72 -137 -104 -198 -32 -60 -91 -175 -133 -255 -41 -80 -97 -189 -125 -243 -31 -60 -47 -101 -41 -106 5 -5 68 -40 139 -77 72 -38 162 -85 200 -105 39 -21 124 -65 190 -99 66 -34 127 -66 136 -72 9 -6 23 -9 31 -6 15 6 88 141 88 163 0 7 -42 34 -92 60 -301 153 -378 196 -378 211 0 8 14 37 31 66 17 29 34 60 38 68 13 25 38 23 99 -7 82 -42 294 -154 313 -166 13 -8 22 -7 33 2 21 18 88 150 81 161 -3 5 -18 15 -33 23 -41 20 -256 134 -315 166 -29 15 -53 35 -55 43 -2 9 10 38 26 65 16 28 33 60 37 71 9 30 32 28 101 -9 98 -52 245 -130 311 -165 35 -19 68 -31 76 -29 13 6 87 142 87 161 0 7 -19 22 -42 34 -24 13 -101 53 -173 90 -71 37 -166 86 -210 110 -140 74 -252 130 -261 130 -5 0 -30 -39 -55 -87z"/>
            <path fill="#000000" d="M12655 2005 c-76 -37 -286 -137 -375 -178 -30 -14 -95 -44 -145 -67 -49 -23 -100 -46 -113 -51 -12 -5 -25 -15 -28 -23 -8 -21 66 -176 84 -176 15 0 67 23 186 82 33 16 66 26 73 24 7 -3 32 -45 54 -93 39 -84 55 -118 136 -293 20 -41 52 -111 72 -155 21 -44 46 -99 56 -122 11 -25 26 -43 35 -43 9 0 42 13 73 29 31 16 66 31 79 35 13 3 34 14 46 24 l24 19 -55 114 c-30 63 -69 146 -87 184 -18 39 -51 111 -75 160 -88 185 -115 244 -115 254 0 6 24 21 53 35 28 13 87 40 130 60 42 20 77 41 77 47 0 17 -52 132 -68 152 -21 24 -36 21 -117 -18z"/>
            <path fill="#000000" d="M6247 1633 c-3 -5 -24 -66 -47 -138 -24 -71 -49 -144 -56 -162 -8 -17 -14 -38 -14 -47 0 -8 -6 -30 -14 -48 -36 -81 -178 -540 -170 -548 5 -4 61 -25 124 -45 63 -21 147 -49 185 -62 198 -68 303 -87 395 -71 139 24 220 118 220 255 0 71 -21 123 -73 183 l-30 34 24 7 c13 4 35 10 49 13 69 15 140 115 140 198 0 80 -11 108 -66 167 -58 63 -124 102 -224 133 -36 11 -81 26 -100 33 -55 21 -318 105 -329 105 -5 0 -12 -3 -14 -7z m215 -262 c13 -5 57 -19 98 -32 125 -37 172 -86 149 -156 -18 -57 -84 -86 -141 -64 -13 5 -57 19 -98 31 -100 30 -103 33 -85 95 18 60 46 135 51 135 2 0 13 -4 26 -9z m-29 -402 c146 -50 187 -82 187 -148 0 -49 -57 -101 -110 -101 -22 0 -49 4 -62 9 -13 5 -57 20 -98 32 -41 13 -81 27 -88 33 -16 12 -10 67 12 118 8 18 17 45 21 61 7 35 24 35 138 -4z"/>
            <path fill="#000000" d="M11285 1466 c-95 -27 -144 -51 -211 -104 -58 -45 -105 -130 -112 -200 -9 -103 52 -218 141 -263 36 -19 68 -22 227 -29 240 -9 270 -20 270 -103 0 -27 -7 -40 -32 -59 -36 -27 -117 -48 -181 -48 -57 0 -209 28 -221 40 -16 16 -54 11 -60 -7 -16 -58 -27 -133 -24 -163 3 -33 7 -36 58 -54 85 -30 329 -29 422 1 129 42 208 97 265 181 37 55 38 60 38 143 -1 76 -4 91 -31 139 -34 59 -99 112 -162 130 -20 6 -118 15 -217 20 l-180 8 -27 31 c-36 41 -35 57 7 97 43 40 91 48 272 43 l127 -4 12 85 c7 47 13 91 14 98 1 47 -251 58 -395 18z"/>
            <path fill="#000000" d="M7523 1258 c-6 -7 -15 -47 -21 -88 -30 -195 -63 -423 -102 -695 -6 -44 -15 -100 -20 -125 -12 -64 -1 -77 67 -85 32 -3 80 -11 108 -16 42 -8 52 -7 62 6 11 16 25 87 38 202 5 41 11 52 28 57 25 6 167 -20 181 -34 10 -10 30 -61 46 -115 26 -89 52 -152 70 -166 12 -10 55 -22 107 -28 49 -7 99 -13 113 -16 59 -9 58 3 -13 156 -74 159 -85 188 -74 196 7 5 28 17 47 27 106 57 170 180 170 327 0 90 -22 149 -78 211 -86 95 -167 122 -522 172 -186 27 -196 28 -207 14z m502 -286 c105 -73 65 -254 -62 -278 -20 -4 -71 -2 -112 5 -42 6 -87 11 -101 11 -50 0 -53 9 -40 111 16 131 30 192 46 205 24 19 220 -21 269 -54z"/>
            <path fill="#000000" d="M9214 1133 c-45 -4 -41 1 -91 -125 -9 -24 -24 -61 -33 -83 -19 -47 -41 -102 -65 -165 -9 -25 -23 -58 -30 -75 -7 -16 -30 -73 -50 -125 -20 -52 -49 -126 -65 -165 -100 -246 -102 -253 -90 -275 7 -14 17 -19 28 -15 8 3 57 9 108 12 51 3 97 9 102 12 5 3 21 41 37 83 15 43 34 83 41 89 10 8 83 12 225 13 l212 1 36 -84 c20 -46 44 -87 53 -90 9 -3 67 -5 128 -3 128 4 135 9 102 75 -11 23 -34 74 -52 112 -17 39 -40 88 -50 110 -33 73 -82 179 -112 245 -16 36 -38 83 -48 105 -10 22 -36 79 -59 128 -22 48 -50 111 -62 140 -36 85 -40 87 -138 85 -47 -1 -105 -3 -127 -5z m116 -296 c0 -7 21 -62 46 -122 25 -61 52 -127 61 -148 9 -21 12 -41 8 -45 -3 -4 -65 -8 -136 -10 -125 -3 -129 -3 -129 17 0 12 4 29 9 39 15 28 81 213 81 227 0 19 40 66 51 60 5 -4 9 -12 9 -18z"/>
        </g>
    </svg>
