<?xml version="1.0" standalone="no"?>
<!DOCTYPE svg PUBLIC "-//W3C//DTD SVG 20010904//EN"
 "http://www.w3.org/TR/2001/REC-SVG-20010904/DTD/svg10.dtd">
<svg version="1.0" xmlns="http://www.w3.org/2000/svg"
 width="444.000000pt" height="444.000000pt" viewBox="0 0 444.000000 444.000000"
 preserveAspectRatio="xMidYMid meet">

<g transform="translate(0.000000,444.000000) scale(0.100000,-0.100000)"
fill="#000000" stroke="none">
<path d="M3705 4424 c-230 -41 -484 -144 -791 -321 l-112 -63 -73 20 c-435
118 -905 75 -1317 -121 -355 -169 -648 -440 -841 -780 -90 -158 -181 -389
-181 -461 0 -52 69 -77 104 -39 10 11 29 55 42 98 14 43 42 117 62 165 l37 88
453 0 c248 0 452 -2 452 -5 0 -3 -11 -54 -26 -113 -31 -133 -61 -341 -70 -489
l-7 -113 -491 0 -492 0 4 70 c5 84 -10 110 -64 110 -25 0 -38 -7 -51 -27 -15
-23 -18 -52 -17 -217 0 -202 22 -373 65 -513 l20 -64 -65 -112 c-149 -256
-270 -544 -311 -737 -88 -412 68 -714 406 -786 87 -19 242 -14 359 11 217 45
513 172 775 331 l76 46 77 -21 c1069 -284 2146 381 2369 1463 20 98 26 161 30
326 5 224 -4 319 -53 522 l-26 108 51 83 c65 108 74 132 60 160 -16 29 -28 37
-60 37 -34 0 -41 -9 -140 -174 -88 -148 -257 -394 -365 -532 l-65 -84 -63 0
c-77 0 -120 14 -140 45 -15 23 -13 28 94 167 217 281 374 528 504 788 123 249
176 420 175 570 0 169 -61 229 -231 230 -152 0 -299 -43 -538 -157 l-135 -64
-112 53 c-62 29 -111 58 -110 63 2 6 93 55 203 110 449 226 765 273 963 145
72 -47 123 -112 153 -200 19 -54 23 -85 22 -180 -1 -137 -29 -265 -99 -448
-25 -66 -45 -124 -45 -131 0 -21 40 -51 68 -51 35 0 52 18 82 90 84 200 120
364 120 542 0 145 -12 205 -56 297 -38 77 -142 179 -224 219 -120 59 -288 76
-455 46z m-1670 -466 c-134 -166 -205 -272 -288 -429 -46 -88 -74 -152 -158
-366 l-9 -23 -430 0 c-305 0 -430 3 -430 11 0 17 101 156 179 246 249 287 642
506 1026 572 146 26 141 26 110 -11z m563 -4 c67 -14 162 -38 210 -55 127 -43
333 -149 442 -227 116 -82 291 -249 375 -357 92 -119 98 -130 85 -154 -11 -21
-16 -21 -425 -21 l-413 0 -23 68 c-77 233 -240 525 -396 709 -29 34 -53 65
-53 67 0 7 59 -2 198 -30z m-225 -144 c76 -94 164 -230 221 -340 50 -96 121
-261 131 -302 l7 -28 -501 0 c-435 0 -501 2 -501 15 0 24 56 157 119 283 74
147 195 328 297 445 l77 88 44 -43 c25 -24 72 -77 106 -118z m1581 134 c35
-35 12 -217 -49 -379 -32 -87 -106 -245 -115 -245 -3 0 -23 23 -44 51 -99 133
-273 304 -395 389 l-35 24 95 44 c196 91 330 131 446 131 61 1 85 -3 97 -15z
m-1156 -1011 c43 -159 78 -387 84 -547 l3 -70 -40 -12 c-30 -9 -201 -13 -659
-13 l-619 -1 6 103 c10 155 35 328 68 467 16 69 31 131 34 138 3 9 123 12 553
12 l549 0 21 -77z m751 -30 c-82 -122 -152 -220 -247 -341 l-64 -83 -22 19
c-33 30 -61 42 -103 42 -36 0 -79 -20 -95 -44 -8 -12 -12 5 -33 164 -10 69
-30 176 -45 238 l-27 112 354 0 353 0 -71 -107z m425 -358 c9 -52 19 -131 23
-175 l6 -80 -153 0 c-149 0 -152 0 -139 19 166 235 235 330 240 330 3 1 13
-42 23 -94z m-785 -238 c75 -112 68 -107 211 -152 47 -15 89 -31 94 -35 5 -5
-18 -41 -51 -82 -98 -121 -93 -107 -93 -250 0 -71 -2 -128 -5 -128 -3 0 -52
18 -110 40 -58 22 -118 40 -133 40 -15 0 -72 -16 -126 -35 -55 -19 -104 -35
-109 -35 -6 0 -6 46 -2 119 8 136 11 127 -81 253 -35 48 -60 89 -56 92 5 3 57
18 116 35 60 16 116 37 126 46 10 9 46 57 81 106 35 49 64 89 66 89 1 0 34
-47 72 -103z m-1747 -257 c11 -157 35 -329 68 -478 17 -73 30 -135 30 -137 0
-3 -203 -5 -451 -5 l-450 0 -34 73 c-52 115 -103 287 -124 419 -22 141 -30
225 -23 233 3 3 224 4 491 3 l486 -3 7 -105z m1148 70 c7 -42 9 -45 77 -136
29 -39 53 -75 53 -81 0 -11 -294 -302 -411 -406 l-77 -67 -278 2 -278 3 -28
115 c-35 142 -65 348 -74 498 l-7 112 509 -2 509 -3 5 -35z m1403 -51 c-3
-154 -62 -387 -141 -561 l-35 -78 -439 0 -440 0 50 58 c28 31 66 72 84 90 l34
32 107 -40 c121 -45 158 -49 205 -20 50 31 62 71 62 208 l0 118 75 95 c41 52
76 103 77 114 2 21 5 55 7 68 1 4 81 6 179 5 l177 -3 -2 -86z m-1246 -464 c17
-30 48 -55 78 -63 26 -7 25 -10 -74 -104 -910 -874 -1845 -1400 -2299 -1293
-302 71 -388 358 -240 804 36 109 201 462 241 515 13 17 18 10 71 -94 l58
-113 -66 -137 c-187 -390 -213 -675 -68 -746 30 -16 60 -19 162 -18 122 0 128
1 264 47 463 157 1096 590 1696 1162 l155 147 5 -43 c3 -24 11 -53 17 -64z
m-1157 -327 c5 -13 29 -75 55 -138 25 -63 48 -120 51 -126 4 -9 -262 -191
-379 -259 l-48 -27 -53 35 c-170 113 -369 318 -480 495 l-26 42 435 0 435 0
10 -22z m445 -13 c-54 -48 -220 -175 -227 -175 -8 0 -78 176 -78 195 0 13 26
15 173 15 l172 -1 -40 -34z m1705 29 c0 -21 -142 -205 -227 -294 -212 -221
-445 -370 -727 -464 -120 -40 -386 -95 -386 -79 0 3 23 31 50 63 69 80 206
286 262 395 51 100 117 252 143 333 l17 52 434 0 c239 0 434 -3 434 -6z
m-1049 -117 c-25 -65 -106 -227 -152 -304 -67 -113 -203 -294 -266 -356 l-49
-48 -80 91 c-43 50 -80 97 -82 104 -2 8 46 51 105 97 122 94 367 299 458 383
66 61 79 67 66 33z m-1966 -126 c74 -97 213 -238 313 -316 50 -38 91 -73 91
-76 2 -11 -195 -98 -305 -135 -118 -40 -270 -57 -311 -36 -43 23 -37 154 13
313 33 106 135 333 144 322 4 -4 28 -37 55 -72z m1272 -518 c68 -79 70 -84 36
-78 -142 22 -223 38 -223 43 0 7 120 90 131 91 3 1 28 -25 56 -56z"/>
</g>
</svg>
