<?xml version="1.0" standalone="no"?>
<!DOCTYPE svg PUBLIC "-//W3C//DTD SVG 20010904//EN"
 "http://www.w3.org/TR/2001/REC-SVG-20010904/DTD/svg10.dtd">
<svg version="1.0" xmlns="http://www.w3.org/2000/svg"
 width="605.000000pt" height="665.000000pt" viewBox="0 0 605.000000 665.000000"
 preserveAspectRatio="xMidYMid meet">

<g transform="translate(0.000000,665.000000) scale(0.100000,-0.100000)"
fill="#000000" stroke="none">
<path d="M4220 6643 c-449 -31 -791 -177 -1100 -472 -41 -39 -77 -71 -79 -71
-2 0 -41 36 -88 80 -465 440 -1158 577 -1778 353 -447 -163 -833 -536 -1010
-978 -130 -325 -149 -752 -49 -1095 123 -422 378 -776 723 -1004 260 -172 600
-276 903 -276 l88 0 118 -112 c107 -103 358 -340 507 -480 78 -73 106 -84 160
-63 22 8 48 27 59 41 18 26 21 43 51 304 52 460 73 645 74 647 1 0 23 17 50
36 27 20 81 65 119 101 38 36 73 66 77 66 4 0 43 -34 87 -75 140 -131 274
-224 443 -304 631 -301 1404 -169 1938 330 264 245 431 558 503 939 28 148 25
477 -5 628 -87 433 -307 786 -651 1044 -235 176 -457 273 -780 337 -25 5 -90
12 -145 16 -55 3 -116 7 -135 8 -19 2 -55 2 -80 0z m-2245 -255 c340 -39 710
-234 919 -484 77 -91 94 -103 149 -104 l48 0 147 148 c84 84 180 170 223 200
220 149 439 225 726 253 241 24 545 -37 788 -159 460 -229 758 -647 815 -1140
42 -370 -41 -720 -247 -1032 -75 -112 -280 -318 -393 -392 -268 -176 -532
-258 -835 -258 -229 0 -431 45 -655 147 -161 73 -376 242 -498 391 -43 52 -78
72 -128 72 -35 0 -46 -9 -160 -127 -67 -71 -156 -153 -197 -183 -42 -30 -83
-68 -91 -85 -15 -30 -29 -115 -46 -280 -14 -136 -40 -364 -48 -420 l-7 -50
-85 80 c-46 44 -132 125 -190 180 -193 184 -255 242 -280 258 -20 14 -50 17
-161 17 -409 0 -767 152 -1049 446 -470 489 -568 1245 -233 1802 238 396 654
670 1095 721 174 21 212 21 393 -1z"/>
<path d="M1733 5885 c-60 -26 -73 -63 -73 -207 l0 -128 -414 0 c-486 0 -490
-1 -516 -91 -13 -45 3 -91 41 -124 30 -24 35 -25 180 -25 l148 0 16 -30 c8
-16 15 -34 15 -40 0 -15 18 -56 91 -205 83 -172 181 -318 317 -472 30 -34 53
-65 52 -70 -7 -22 -225 -162 -322 -206 -29 -14 -73 -34 -98 -45 -25 -12 -94
-38 -155 -58 -60 -20 -118 -43 -128 -52 -47 -41 -42 -143 8 -176 40 -27 143
-21 245 14 150 50 385 177 558 300 l83 60 72 -54 c102 -75 213 -141 367 -220
155 -79 266 -116 351 -116 84 0 114 16 130 70 13 43 0 97 -29 122 -9 9 -60 30
-112 47 -217 73 -364 147 -538 270 -70 49 -70 37 -3 111 158 173 333 461 407
670 l29 80 150 0 c131 0 154 3 179 19 58 38 71 101 36 159 -37 61 -45 62 -505
62 l-415 0 0 128 c0 108 -3 132 -20 159 -31 52 -93 72 -147 48z m462 -592 c-4
-10 -12 -31 -17 -46 -20 -54 -110 -221 -162 -302 -58 -88 -157 -214 -205 -259
l-31 -30 -26 25 c-78 73 -218 262 -288 390 -31 58 -106 223 -106 235 0 2 189
4 421 4 397 0 421 -1 414 -17z"/>
<path d="M4270 5893 c-31 -12 -63 -50 -87 -103 -14 -30 -52 -111 -84 -179 -33
-67 -59 -125 -59 -126 0 -2 -34 -74 -75 -160 -41 -87 -75 -158 -75 -160 0 -2
-26 -59 -59 -126 -32 -68 -69 -146 -81 -174 -13 -27 -43 -93 -67 -145 -25 -52
-60 -126 -78 -165 -18 -38 -54 -115 -80 -170 -158 -335 -161 -344 -125 -403
35 -57 117 -70 169 -27 28 24 49 62 119 215 22 50 93 200 144 308 l20 42 457
0 458 0 38 -82 c43 -94 94 -202 170 -363 28 -60 59 -116 69 -124 9 -8 39 -16
65 -19 45 -4 52 -1 87 31 34 31 39 41 38 79 0 28 -14 71 -38 123 -21 44 -62
131 -92 194 -30 62 -54 114 -54 116 0 2 -26 59 -59 126 -32 68 -70 149 -84
179 -13 30 -48 103 -75 162 -28 59 -61 128 -73 155 -12 26 -48 104 -80 172
-33 67 -59 124 -59 126 0 1 -26 58 -59 126 -32 68 -81 171 -108 229 -28 58
-59 113 -71 123 -21 19 -86 31 -112 20z m130 -588 c23 -49 68 -146 100 -215
32 -69 79 -169 104 -223 25 -54 46 -100 46 -102 0 -3 -153 -5 -341 -5 l-340 0
6 21 c4 12 33 76 65 143 31 66 68 144 80 171 12 28 45 97 72 155 28 58 61 130
75 160 40 86 43 88 69 33 12 -26 41 -88 64 -138z"/>
<path d="M3675 2814 c-96 -23 -235 -97 -309 -165 -129 -119 -197 -257 -225
-459 -28 -198 53 -435 198 -575 23 -21 41 -44 41 -50 0 -5 -26 -18 -58 -29
-80 -26 -217 -95 -314 -159 -303 -198 -488 -515 -488 -834 0 -234 128 -427
341 -514 l71 -29 922 0 c1022 0 958 -4 1076 66 159 94 270 289 270 472 0 64
-27 214 -51 286 -102 303 -381 572 -729 701 -41 15 -78 31 -82 34 -4 4 16 32
45 63 96 104 157 228 185 377 26 144 -5 333 -79 471 -92 173 -259 297 -466
345 -80 19 -266 18 -348 -1z m329 -241 c305 -100 431 -458 255 -722 -53 -79
-107 -125 -199 -170 -74 -36 -76 -36 -205 -36 -129 0 -131 1 -200 35 -170 85
-285 261 -285 435 0 115 61 256 149 342 60 60 171 119 247 133 64 12 176 4
238 -17z m56 -1197 c277 -41 512 -155 679 -332 110 -116 168 -219 202 -361 58
-244 -39 -418 -252 -452 -87 -15 -1581 -15 -1668 -1 -82 14 -127 37 -179 94
-64 69 -82 120 -82 227 0 187 80 362 234 513 174 170 426 285 701 319 74 10
279 5 365 -7z"/>
</g>
</svg>
