<?xml version="1.0" standalone="no"?>
<!DOCTYPE svg PUBLIC "-//W3C//DTD SVG 20010904//EN"
 "http://www.w3.org/TR/2001/REC-SVG-20010904/DTD/svg10.dtd">
<svg version="1.0" xmlns="http://www.w3.org/2000/svg"
 width="724.000000pt" height="724.000000pt" viewBox="0 0 724.000000 724.000000"
 preserveAspectRatio="xMidYMid meet">

<g transform="translate(0.000000,724.000000) scale(0.100000,-0.100000)"
fill="#000000" stroke="none">
<path d="M6284 7113 c-34 -17 -36 -21 -134 -228 -34 -71 -71 -149 -82 -173
-12 -26 -28 -44 -41 -46 -19 -4 -116 -18 -352 -53 -56 -8 -93 -29 -115 -66
-40 -66 -30 -83 163 -283 86 -89 147 -160 147 -171 0 -11 -16 -113 -35 -229
-19 -115 -33 -221 -29 -236 6 -31 54 -75 90 -84 27 -7 76 11 154 56 25 15 77
44 115 65 39 21 93 50 120 66 l50 28 179 -99 c211 -117 228 -124 260 -116 35
9 83 52 90 81 4 14 -10 123 -29 241 -20 119 -35 224 -33 234 2 10 67 84 146
164 190 195 203 217 162 283 -27 45 -61 60 -181 77 -213 30 -265 38 -286 42
-13 2 -29 20 -41 46 -11 24 -48 102 -82 173 -99 211 -100 211 -136 229 -42 19
-60 19 -100 -1z m78 -421 c59 -132 91 -191 110 -210 18 -16 54 -26 158 -43 74
-12 137 -23 139 -25 2 -2 -41 -51 -97 -108 -56 -57 -104 -115 -107 -129 -4
-13 3 -80 14 -147 30 -174 31 -166 -31 -130 -104 61 -188 100 -214 100 -23 0
-174 -73 -241 -118 -21 -13 -23 -13 -23 6 0 11 9 75 21 142 11 67 18 134 14
147 -3 14 -51 72 -107 129 -56 57 -99 106 -97 108 2 2 65 13 139 25 104 17
140 27 158 43 19 19 51 78 110 210 9 21 22 37 27 37 6 0 18 -16 27 -37z"/>
<path d="M450 6900 l0 -110 -110 0 -110 0 0 -115 0 -115 110 0 109 0 3 -111 3
-111 110 0 110 0 3 111 3 110 110 3 111 3 0 110 0 110 -111 3 -111 3 0 109 0
110 -115 0 -115 0 0 -110z m230 -225 l0 -115 -115 0 -115 0 0 115 0 115 115 0
115 0 0 -115z"/>
<path d="M1360 6560 l0 -110 -115 0 -115 0 0 -115 0 -115 115 0 115 0 0 -110
0 -110 110 0 110 0 0 110 0 110 115 0 115 0 0 115 0 115 -115 0 -115 0 0 110
0 110 -110 0 -110 0 0 -110z m220 -225 l0 -115 -110 0 -110 0 0 115 0 115 110
0 110 0 0 -115z"/>
<path d="M3629 5820 c-77 -25 -124 -51 -192 -105 -230 -183 -271 -534 -91
-771 40 -52 40 -54 15 -54 -35 0 -175 -80 -224 -128 -27 -26 -110 -130 -184
-232 -75 -102 -163 -221 -195 -265 -374 -506 -602 -822 -616 -855 -34 -83 -8
-186 65 -249 60 -53 106 -62 258 -50 185 14 248 27 289 57 19 15 72 77 118
137 361 475 461 605 469 605 5 0 9 -21 9 -46 0 -26 7 -119 16 -208 18 -179 16
-248 -15 -446 -12 -74 -28 -182 -36 -240 -8 -58 -24 -168 -36 -245 -11 -77
-27 -183 -34 -235 -8 -52 -23 -160 -35 -240 -12 -80 -27 -188 -35 -240 -44
-308 -58 -396 -66 -400 -4 -3 -54 -14 -111 -24 -57 -9 -121 -21 -143 -25 -22
-3 -40 -11 -40 -16 1 -22 27 -215 30 -215 12 0 260 45 335 61 866 181 1665
582 2335 1171 39 34 149 141 246 237 220 221 330 346 484 550 67 89 79 111 83
152 4 45 2 51 -29 81 -28 27 -51 37 -121 53 -49 10 -88 22 -88 26 0 6 178 108
370 212 30 16 60 33 65 37 6 4 49 28 98 54 62 34 88 43 91 34 2 -7 13 -56 25
-108 36 -170 111 -504 117 -529 8 -26 5 -26 -94 10 -63 23 -120 24 -149 4 -11
-8 -62 -76 -114 -152 -429 -635 -927 -1195 -1419 -1595 -429 -348 -842 -592
-1330 -785 -347 -137 -760 -235 -1130 -266 -96 -9 -135 -16 -134 -24 1 -7 2
-59 3 -114 l1 -101 88 6 c482 38 968 159 1427 359 327 142 590 291 934 532 45
32 273 205 281 214 3 4 32 28 65 56 454 375 983 970 1355 1523 41 61 81 112
87 112 7 0 73 -20 147 -44 114 -38 139 -43 169 -35 39 10 61 31 77 73 8 23 6
49 -11 125 -12 53 -29 132 -39 176 -9 44 -29 133 -44 198 -14 64 -38 170 -52
235 -88 396 -89 399 -145 422 -16 7 -42 10 -57 7 -15 -3 -122 -58 -237 -122
-116 -65 -239 -133 -275 -153 -36 -20 -87 -48 -113 -64 -26 -15 -50 -28 -52
-28 -2 0 -45 -24 -97 -54 -51 -29 -98 -55 -104 -57 -49 -18 -214 -126 -223
-146 -14 -31 -14 -75 0 -107 16 -35 57 -53 206 -90 73 -18 136 -35 139 -39 16
-15 -244 -313 -449 -514 -139 -137 -167 -159 -167 -130 0 8 -9 43 -19 78 -43
139 -123 408 -142 474 -49 168 -73 200 -191 260 -40 21 -104 54 -143 75 -38
20 -116 61 -172 90 -92 47 -103 56 -108 84 -5 30 -19 139 -51 396 l-16 124 29
23 c15 13 91 72 168 130 194 148 844 646 859 658 22 19 54 80 61 118 14 75 -2
120 -87 249 -88 132 -113 160 -170 189 -43 22 -132 25 -175 7 -24 -10 -504
-378 -831 -637 -51 -41 -94 -72 -97 -70 -2 2 6 31 17 64 29 83 35 220 13 305
-50 196 -186 343 -374 407 -87 30 -257 31 -342 3z m256 -214 c97 -25 176 -94
221 -190 19 -41 24 -68 24 -137 0 -76 -4 -93 -30 -147 -36 -72 -92 -125 -169
-160 -75 -35 -192 -37 -264 -4 -141 63 -214 185 -205 339 12 209 217 354 423
299z m1506 -167 c32 -46 59 -87 59 -91 0 -6 -415 -326 -815 -628 -255 -192
-293 -225 -303 -262 -8 -32 -1 -101 37 -393 12 -88 26 -198 32 -245 12 -103
24 -135 58 -159 26 -18 208 -114 391 -206 140 -71 145 -75 164 -147 9 -35 21
-74 26 -88 5 -14 18 -56 29 -95 19 -67 104 -353 138 -463 9 -29 14 -54 12 -55
-2 -2 -35 -28 -74 -58 -38 -30 -84 -65 -102 -77 l-31 -22 -26 67 c-14 38 -38
106 -55 153 -145 418 -166 468 -215 505 -17 13 -162 88 -321 166 -305 149
-336 159 -387 125 -43 -28 -40 -12 -148 -646 -22 -129 -46 -271 -54 -315 -8
-44 -22 -123 -31 -175 -9 -52 -35 -203 -58 -334 l-42 -240 -80 -23 c-44 -13
-109 -33 -144 -43 -82 -25 -104 -26 -97 -2 3 9 15 80 26 157 11 77 35 248 55
380 19 132 49 332 65 445 30 204 54 371 88 590 21 140 20 226 -2 485 -10 110
-23 271 -30 357 -13 165 -22 192 -71 224 -34 22 -100 13 -131 -18 -12 -13 -69
-85 -126 -160 -57 -75 -213 -281 -348 -459 -135 -177 -247 -325 -250 -329 -6
-9 -260 -34 -267 -27 -4 5 55 87 441 611 105 143 198 270 206 282 57 85 232
317 267 355 39 42 99 80 148 93 27 8 175 23 403 41 407 33 488 42 510 54 12 7
159 119 325 250 556 436 652 510 661 508 5 -2 35 -41 67 -88z m-1019 -2337
l203 -99 42 -119 c41 -119 116 -331 169 -477 21 -58 25 -82 18 -95 -26 -40
-515 -311 -719 -397 -101 -43 -154 -63 -158 -59 -2 3 0 26 5 52 5 26 25 139
44 252 19 113 44 257 55 320 11 63 26 151 34 195 87 514 89 525 99 525 3 0 96
-44 208 -98z"/>
<path d="M1058 2571 c-33 -29 -33 -30 -38 -142 l-5 -113 -48 -20 -48 -20 -72
72 c-74 73 -110 91 -161 78 -29 -7 -368 -341 -391 -386 -26 -51 -12 -85 72
-171 63 -66 73 -80 64 -95 -6 -11 -15 -31 -21 -46 -9 -28 -10 -28 -107 -28
-80 0 -104 -4 -130 -20 -60 -36 -63 -53 -63 -320 0 -332 4 -340 188 -340 l98
0 21 -49 20 -49 -59 -59 c-80 -78 -104 -124 -89 -172 14 -48 350 -383 400
-400 47 -15 98 10 174 87 l59 59 49 -20 49 -21 0 -98 c0 -184 8 -188 342 -188
223 0 246 2 275 20 50 30 63 66 63 174 l0 95 47 21 46 20 76 -74 c86 -83 120
-97 171 -71 45 23 379 361 386 391 13 51 -5 87 -78 161 l-72 72 20 48 20 48
113 5 c112 5 113 5 142 38 l29 32 0 261 c0 213 -3 265 -15 289 -24 47 -61 60
-172 60 l-98 0 -19 45 -18 45 71 75 c125 132 122 140 -112 372 -100 99 -193
184 -205 188 -48 14 -86 -3 -162 -75 l-74 -71 -48 18 -48 17 0 93 c0 58 -5
107 -14 128 -26 61 -44 65 -335 65 l-261 0 -32 -29z m412 -276 c0 -129 13
-147 133 -187 34 -11 92 -35 129 -54 37 -19 75 -34 83 -34 28 0 69 27 120 79
28 28 54 51 60 51 13 0 155 -142 155 -155 0 -5 -23 -32 -51 -60 -59 -57 -83
-98 -76 -129 3 -11 23 -61 45 -111 22 -49 48 -112 57 -138 25 -70 57 -87 168
-87 l88 0 -3 -112 -3 -113 -97 -5 c-117 -6 -135 -19 -167 -118 -12 -36 -38
-98 -57 -136 -19 -38 -34 -78 -34 -88 0 -31 25 -70 79 -123 28 -27 51 -53 51
-57 0 -5 -34 -43 -76 -84 l-77 -76 -62 62 c-82 82 -115 87 -212 38 -37 -20
-98 -45 -134 -57 -100 -33 -113 -52 -117 -167 l-4 -94 -113 0 -113 0 -4 100
c-4 117 -9 125 -108 160 -36 13 -97 39 -136 57 -104 48 -121 46 -204 -32 -38
-36 -71 -65 -72 -65 -2 0 -39 36 -82 79 l-79 80 39 38 c108 107 113 127 60
237 -19 39 -45 100 -57 136 -33 99 -41 104 -159 108 l-100 4 0 113 0 113 94 4
c115 4 134 17 167 117 12 36 37 97 56 135 50 99 44 129 -37 211 l-62 62 78 77
c43 42 80 76 84 76 3 0 30 -25 60 -55 32 -33 70 -60 91 -66 32 -10 43 -8 98
20 34 17 98 43 142 58 114 38 129 58 129 172 0 48 3 91 7 94 3 4 55 7 115 7
l108 0 0 -85z"/>
<path d="M1234 1910 c-61 -13 -169 -64 -222 -106 -102 -81 -169 -185 -202
-313 -25 -100 -25 -167 0 -266 53 -207 208 -362 415 -415 99 -25 166 -25 266
0 181 46 311 158 388 334 34 79 36 85 36 206 0 146 -13 196 -80 305 -69 111
-170 193 -293 237 -64 23 -238 33 -308 18z m204 -224 c137 -37 223 -130 253
-274 11 -50 10 -71 0 -114 -27 -110 -92 -197 -186 -246 -44 -23 -62 -26 -145
-27 -90 0 -99 2 -158 34 -70 38 -122 92 -155 161 -17 36 -21 64 -21 140 -1 84
2 101 26 145 26 50 90 117 139 147 36 23 117 46 159 47 19 1 59 -6 88 -13z"/>
<path d="M6564 901 c-2 -2 -4 -53 -4 -112 l0 -108 -111 -3 -111 -3 0 -110 0
-110 111 -3 111 -3 0 -109 0 -110 115 0 115 0 0 110 0 110 110 0 110 0 0 115
0 115 -110 0 -109 0 -3 111 -3 110 -108 2 c-60 1 -111 0 -113 -2z m226 -336
l0 -115 -115 0 -115 0 0 115 0 115 115 0 115 0 0 -115z"/>
</g>
</svg>
