<?xml version="1.0" standalone="no"?>
<!DOCTYPE svg PUBLIC "-//W3C//DTD SVG 20010904//EN"
 "http://www.w3.org/TR/2001/REC-SVG-20010904/DTD/svg10.dtd">
<svg version="1.0" xmlns="http://www.w3.org/2000/svg"
 width="634.000000pt" height="748.000000pt" viewBox="0 0 634.000000 748.000000"
 preserveAspectRatio="xMidYMid meet">

<g transform="translate(0.000000,748.000000) scale(0.100000,-0.100000)"
fill="currentColor" stroke="none">
<path d="M3005 7391 c-88 -26 -158 -62 -297 -153 -67 -45 -125 -84 -128 -87
-5 -6 -27 -19 -84 -50 -75 -40 -95 -42 -413 -39 -300 3 -310 2 -377 -20 -170
-57 -254 -150 -403 -447 -38 -77 -78 -155 -88 -174 -40 -76 -116 -134 -292
-222 -389 -195 -471 -285 -504 -555 -10 -79 -10 -128 -1 -225 22 -230 14 -338
-33 -428 -9 -18 -58 -96 -109 -174 -167 -254 -199 -331 -200 -477 -1 -112 14
-163 86 -299 50 -96 145 -243 160 -249 4 -2 8 -8 8 -14 0 -5 13 -28 29 -52 70
-101 82 -201 60 -481 -24 -291 30 -463 185 -583 89 -70 129 -94 272 -163 157
-76 294 -165 294 -191 0 -5 -18 -47 -41 -94 -42 -90 -82 -176 -129 -279 -15
-33 -45 -98 -68 -145 -22 -47 -55 -119 -75 -160 -19 -41 -51 -111 -72 -155
-21 -44 -50 -107 -65 -140 -16 -33 -49 -105 -75 -160 -150 -321 -149 -318
-118 -382 35 -74 50 -76 560 -93 156 -5 290 -13 299 -18 9 -5 53 -51 98 -101
402 -454 440 -491 501 -491 15 0 45 10 66 22 40 22 51 41 154 263 21 44 50
107 65 140 16 33 53 113 84 179 31 65 56 120 56 121 0 2 37 81 136 293 72 153
103 219 123 264 11 26 25 50 31 53 5 3 47 -17 92 -44 46 -27 119 -64 163 -83
74 -30 88 -33 190 -32 133 0 191 18 342 105 57 32 105 59 108 59 3 0 30 -51
59 -112 50 -106 69 -146 136 -293 29 -62 77 -166 137 -295 20 -41 50 -106 68
-145 216 -463 214 -459 268 -483 37 -16 72 -15 105 2 23 12 124 116 248 256
33 37 205 228 264 293 l35 38 295 9 c508 16 518 18 559 90 28 50 27 78 -9 155
-16 36 -44 95 -61 133 -17 37 -44 94 -59 127 -35 76 -91 196 -142 305 -22 47
-56 119 -75 160 -19 41 -52 111 -73 155 -40 85 -74 158 -138 295 -21 47 -49
106 -62 132 -12 27 -20 54 -17 62 6 14 103 91 142 112 11 6 29 15 40 21 11 6
70 35 130 64 176 84 289 168 355 264 65 95 96 269 80 445 -13 145 -12 353 1
387 31 75 62 130 152 267 157 239 188 314 188 461 0 144 -45 253 -195 475 -39
58 -76 114 -82 125 -6 11 -20 36 -30 55 -11 19 -25 54 -32 76 -14 49 -15 250
-2 389 17 173 -14 344 -81 442 -52 76 -133 146 -234 203 -22 13 -112 59 -200
103 -214 108 -244 138 -345 342 -167 337 -254 439 -425 497 -68 22 -78 23
-378 20 -231 -2 -317 0 -345 10 -58 20 -140 66 -227 127 -155 109 -269 171
-368 197 -71 19 -199 16 -272 -5z m212 -262 c75 -31 130 -62 267 -152 172
-113 214 -136 311 -168 66 -21 82 -22 280 -19 375 7 404 6 459 -20 67 -32 111
-92 212 -293 168 -333 208 -373 540 -540 196 -99 253 -139 291 -205 31 -52 32
-66 24 -482 -5 -263 11 -312 186 -575 216 -326 216 -356 3 -675 -112 -167
-139 -217 -170 -315 -20 -64 -22 -86 -19 -255 8 -422 7 -440 -23 -492 -40 -66
-82 -96 -289 -201 -335 -169 -377 -211 -534 -526 -163 -328 -207 -357 -502
-333 -390 32 -477 11 -778 -188 -199 -132 -241 -152 -323 -152 -91 0 -144 25
-342 158 -122 82 -225 141 -272 155 -136 42 -235 48 -492 27 -156 -12 -228 -6
-294 28 -56 28 -108 101 -197 281 -168 336 -207 376 -526 539 -113 58 -223
119 -243 136 -87 72 -116 174 -97 346 15 142 13 374 -4 445 -21 88 -71 185
-186 362 -134 204 -149 237 -149 320 0 89 21 133 169 355 95 142 146 242 166
327 17 70 19 293 5 446 -16 169 5 259 77 329 45 43 72 59 257 150 168 83 255
139 319 202 68 69 93 109 201 322 103 204 142 259 213 301 52 30 77 32 458 23
148 -4 214 -1 255 9 81 19 196 80 367 193 212 139 297 170 380 137z m-1847
-5181 c0 -21 96 -153 146 -204 69 -69 165 -116 276 -134 75 -12 163 -11 435 6
106 7 221 -9 230 -32 3 -9 -49 -128 -173 -391 -19 -40 -50 -107 -69 -148 -19
-41 -50 -108 -69 -148 -18 -39 -52 -110 -74 -157 -22 -47 -58 -125 -81 -175
l-42 -89 -42 44 c-23 25 -80 88 -127 140 -47 52 -89 100 -95 106 -5 6 -41 46
-80 89 -38 43 -85 84 -104 92 -29 13 -340 29 -603 33 -37 0 -36 12 13 117 71
153 170 365 206 443 57 122 103 220 143 305 21 44 46 97 56 119 l17 38 18 -23
c10 -13 19 -27 19 -31z m3630 -20 c18 -40 55 -118 81 -173 25 -55 75 -161 109
-235 112 -241 131 -284 181 -388 76 -161 81 -148 -53 -155 -62 -4 -174 -7
-248 -7 -74 0 -169 -5 -210 -10 -88 -11 -67 7 -360 -320 -47 -52 -99 -110
-116 -128 l-31 -34 -14 24 c-8 12 -30 57 -49 98 -18 41 -56 122 -83 180 -27
58 -62 134 -79 170 -17 36 -47 101 -68 145 -52 111 -103 220 -141 301 -17 38
-42 93 -56 122 -13 30 -22 59 -20 66 9 23 120 39 224 32 54 -3 161 -9 238 -12
293 -13 432 50 574 261 26 39 54 85 62 103 8 17 16 32 19 32 3 0 21 -33 40
-72z"/>
<path d="M2950 6340 c-130 -15 -385 -73 -404 -91 -6 -5 -20 -9 -32 -9 -13 0
-26 -4 -29 -10 -3 -5 -13 -10 -20 -10 -8 0 -45 -14 -82 -30 -547 -245 -926
-655 -1121 -1215 -27 -75 -58 -204 -84 -340 -17 -95 -18 -507 0 -595 7 -36 18
-90 24 -120 5 -30 14 -66 18 -80 4 -14 13 -45 20 -70 61 -223 205 -503 355
-689 131 -162 307 -321 480 -433 85 -55 263 -148 343 -179 12 -5 32 -13 45
-19 44 -19 183 -62 232 -72 27 -5 70 -14 95 -19 96 -21 279 -39 385 -39 95 0
307 20 370 34 165 38 227 55 280 76 11 4 36 13 55 20 72 25 227 98 309 146
247 143 493 375 659 621 23 34 42 64 42 66 0 3 17 34 38 68 229 385 313 908
221 1373 -105 527 -409 984 -859 1288 -79 53 -295 168 -375 198 -141 55 -253
86 -415 115 -101 19 -441 28 -550 15z m410 -275 c151 -18 186 -25 317 -64 272
-82 499 -216 702 -414 119 -117 164 -171 238 -282 150 -224 229 -434 282 -746
14 -84 14 -367 0 -445 -32 -183 -43 -228 -75 -324 -122 -369 -365 -686 -696
-908 -42 -29 -79 -52 -82 -52 -3 0 -27 -13 -53 -28 -52 -31 -190 -91 -265
-116 -187 -62 -344 -86 -555 -86 -285 0 -505 49 -753 167 -52 25 -114 59 -137
74 -23 16 -45 29 -49 29 -11 0 -185 135 -251 195 -34 30 -92 92 -131 138 -487
578 -556 1368 -177 2022 112 193 316 411 500 535 28 19 52 36 55 40 10 12 147
86 225 121 169 77 332 121 545 148 102 13 225 12 360 -4z"/>
<path d="M3065 5569 c-72 -35 -94 -68 -217 -317 -93 -187 -125 -243 -141 -247
-12 -3 -116 -19 -232 -35 -115 -16 -226 -33 -246 -36 -92 -16 -176 -90 -200
-177 -16 -59 -5 -140 25 -191 14 -24 105 -121 203 -216 98 -95 182 -179 186
-186 4 -7 -11 -120 -33 -251 -56 -324 -54 -372 19 -455 46 -52 107 -78 187
-78 72 0 57 -6 304 124 69 36 153 80 188 98 l63 33 142 -73 c78 -40 189 -98
247 -128 96 -49 111 -54 172 -54 126 0 225 82 243 202 6 40 -2 117 -25 243 -5
28 -14 79 -20 115 -6 36 -17 99 -25 140 l-14 75 193 190 c219 215 239 244 239
345 0 77 -24 131 -78 178 -51 45 -81 58 -165 71 -41 7 -100 16 -130 21 -30 5
-113 17 -185 26 -71 10 -135 22 -142 27 -7 5 -64 114 -128 242 -118 239 -146
280 -216 315 -52 27 -159 27 -214 -1z m235 -537 c85 -171 127 -245 147 -260
26 -18 64 -26 248 -53 39 -6 95 -14 125 -19 30 -5 83 -12 118 -15 34 -4 65
-11 68 -17 4 -5 -77 -90 -179 -189 -106 -102 -192 -194 -202 -215 -18 -38 -16
-68 14 -239 5 -27 14 -81 20 -120 6 -38 18 -104 25 -145 7 -41 12 -77 9 -80
-4 -4 -36 11 -253 126 -222 117 -237 124 -266 124 -16 0 -54 -13 -84 -28 -83
-42 -308 -161 -367 -193 -68 -38 -75 -37 -68 9 8 54 24 149 35 207 5 28 14 78
20 113 5 34 15 89 21 121 10 54 9 64 -10 105 -12 24 -43 63 -69 87 -78 70
-322 312 -319 316 6 5 99 20 342 54 169 24 214 36 242 65 7 7 65 118 128 247
113 229 125 251 132 243 2 -2 57 -112 123 -244z"/>
</g>
</svg>
