<?xml version="1.0" standalone="no"?>
<!DOCTYPE svg PUBLIC "-//W3C//DTD SVG 20010904//EN"
 "http://www.w3.org/TR/2001/REC-SVG-20010904/DTD/svg10.dtd">
<svg version="1.0" xmlns="http://www.w3.org/2000/svg"
 width="519.000000pt" height="611.000000pt" viewBox="0 0 519.000000 611.000000"
 preserveAspectRatio="xMidYMid meet">

<g transform="translate(0.000000,611.000000) scale(0.100000,-0.100000)"
fill="#000000" stroke="none">
<path d="M2415 6098 c-225 -25 -467 -114 -665 -244 -336 -220 -562 -535 -669
-934 -61 -229 -55 -564 15 -805 55 -189 148 -371 270 -530 62 -81 198 -218
267 -269 20 -16 37 -31 37 -35 0 -4 -60 -33 -132 -66 -446 -200 -829 -530
-1107 -955 -75 -114 -206 -377 -257 -515 -103 -278 -160 -617 -151 -890 5
-167 22 -244 80 -363 110 -225 282 -372 537 -458 l85 -29 1875 0 1875 0 85 29
c303 102 506 308 591 599 31 104 37 334 15 510 -47 366 -130 632 -292 937
-267 500 -700 906 -1212 1135 -72 33 -132 62 -132 66 0 4 17 19 38 35 68 51
204 188 266 269 164 214 273 465 311 720 17 117 20 337 4 456 -37 289 -172
581 -374 812 -338 387 -847 584 -1360 525z m410 -483 c467 -97 814 -489 864
-975 45 -430 -196 -868 -589 -1069 -164 -84 -315 -121 -500 -121 -185 0 -336
37 -500 121 -530 272 -744 921 -479 1455 171 347 480 560 879 608 61 7 251 -4
325 -19z m65 -2661 c356 -48 685 -185 990 -412 98 -73 320 -295 399 -400 231
-305 379 -679 420 -1054 14 -125 14 -286 0 -329 -45 -141 -157 -247 -293 -276
-90 -19 -3522 -19 -3612 0 -136 29 -248 135 -293 276 -26 83 -8 342 40 561 63
290 197 579 380 822 75 99 276 302 377 382 227 178 520 322 797 390 255 62
530 76 795 40z"/>
</g>
</svg>
